<svg width="55" height="60" viewBox="0 0 55 60" fill="none" xmlns="http://www.w3.org/2000/svg">
<g clip-path="url(#clip0_1_478)">
<path d="M18.866 48.1936C19.9886 48.7848 21.3819 48.3569 21.9742 47.2365C22.5665 46.1161 22.1378 44.7283 21.0152 44.1343C20.0929 43.6473 18.9958 43.8585 18.3019 44.5679L20.1747 45.7248C20.4173 45.8515 20.5104 46.1527 20.3806 46.3976C20.2509 46.6426 19.9491 46.7326 19.7065 46.606L17.6955 45.7136C17.5009 46.682 17.9437 47.7066 18.866 48.1936Z" fill="#2AAA94"/>
<path d="M20.217 46.3103C20.296 46.1583 20.2396 45.9725 20.0873 45.8937C19.935 45.8121 19.7488 45.8712 19.6699 46.0232C19.5909 46.1752 19.6473 46.361 19.7996 46.4398C19.9491 46.5187 20.1353 46.4595 20.217 46.3103Z" fill="#2AAA94"/>
<path d="M24.4648 31.3342H1.33691C0.600761 31.3342 0 31.9366 0 32.6714V44.306C0 45.0407 0.521788 45.9415 1.15922 46.3103L18.1977 56.1292L24.6481 59.8451C25.2856 60.2138 25.8074 59.9126 25.8074 59.1779V45.1111V32.677C25.8045 31.9367 25.2038 31.3342 24.4648 31.3342ZM23.4241 46.4342L23.0546 46.5214C23.0292 46.7466 22.9784 46.9718 22.9023 47.1914L23.1956 47.4307C23.252 47.4785 23.2718 47.5686 23.2351 47.6334L23.0094 48.0584C22.9756 48.1232 22.891 48.1598 22.8205 48.1373L22.4566 48.0303C22.3184 48.2161 22.1605 48.385 21.9884 48.5342L22.1238 48.8889C22.1492 48.9564 22.121 49.0437 22.0589 49.0831L21.6528 49.3365C21.5907 49.3759 21.5005 49.3646 21.4497 49.3111L21.1874 49.0353C20.9759 49.1254 20.7559 49.1957 20.5302 49.238L20.4682 49.6124C20.4569 49.6855 20.3892 49.7475 20.3131 49.7503L19.8336 49.7672C19.7603 49.77 19.6869 49.7137 19.67 49.6405L19.5797 49.2745C19.3541 49.2492 19.1285 49.1985 18.9085 49.1225L18.6687 49.4153C18.6236 49.4716 18.5305 49.4913 18.4657 49.4575L18.0398 49.2323C17.9749 49.1985 17.9411 49.1113 17.9608 49.0437L18.068 48.6806C17.8818 48.5426 17.7126 48.385 17.5631 48.2133L17.2077 48.3484C17.14 48.3765 17.0498 48.3456 17.0131 48.2837L16.7593 47.8783C16.7198 47.8164 16.7311 47.7235 16.7847 47.6756L17.0582 47.4166C16.968 47.2055 16.9003 46.9859 16.8552 46.7607L16.48 46.7016C16.4067 46.6903 16.3447 46.62 16.3447 46.5468L16.3249 46.0682C16.3221 45.995 16.3785 45.9218 16.449 45.9049L16.8185 45.8177C16.8354 45.6685 16.8664 45.5221 16.9059 45.3757L14.4944 44.306C14.2349 44.6551 13.9416 44.9675 13.6201 45.2434L13.8711 45.9021C13.9191 46.0316 13.8655 46.1949 13.7498 46.2653L12.9911 46.741C12.8755 46.8142 12.7034 46.7917 12.6104 46.6931L12.1224 46.178C11.7304 46.3469 11.3186 46.4736 10.8983 46.5552L10.7855 47.2533C10.7629 47.3885 10.6332 47.5039 10.4978 47.5067L9.60372 47.5405C9.46552 47.5461 9.32732 47.4391 9.29629 47.3068L9.1327 46.62C8.71245 46.5721 8.2922 46.4792 7.88041 46.3356L7.43478 46.8846C7.34734 46.9887 7.17811 47.0253 7.05683 46.9606L6.26428 46.5439C6.143 46.4792 6.07531 46.3216 6.11479 46.1893L6.31505 45.5108C5.96531 45.2518 5.65223 44.9591 5.37301 44.6382L4.71302 44.8887C4.58609 44.9366 4.41969 44.8831 4.34917 44.7677L3.87251 44.0104C3.79918 43.895 3.82175 43.7233 3.92046 43.6304L4.43661 43.1434C4.26738 42.7493 4.14046 42.3411 4.05867 41.9188L3.35919 41.8062C3.2238 41.7837 3.10817 41.6542 3.10534 41.5191L3.0715 40.6267C3.06586 40.4888 3.17022 40.3508 3.30278 40.3199L3.99097 40.1566C4.03892 39.7372 4.132 39.3177 4.27584 38.9067L3.72867 38.4619C3.62149 38.3747 3.58765 38.2058 3.65252 38.0875L4.06995 37.2965C4.132 37.1755 4.29277 37.1079 4.42533 37.1473L5.10224 37.3472C5.36173 36.9981 5.65506 36.6856 5.97659 36.407L5.72557 35.7454C5.67762 35.6187 5.73121 35.4526 5.84685 35.3823L6.60556 34.9065C6.7212 34.8362 6.89324 34.8559 6.98632 34.9544L7.47426 35.4667C7.86631 35.2978 8.2781 35.1711 8.70117 35.0895L8.81399 34.3914C8.83655 34.2563 8.9663 34.1436 9.10168 34.138L9.99577 34.1042C10.134 34.0986 10.2694 34.2028 10.3004 34.3379L10.4668 35.0248C10.887 35.0726 11.3073 35.1655 11.7191 35.3091L12.1647 34.763C12.2522 34.6588 12.4214 34.6222 12.5427 34.687L13.3352 35.1036C13.4565 35.1683 13.5242 35.326 13.4847 35.4583L13.2816 36.1339C13.6314 36.3929 13.9444 36.6856 14.2237 37.0066L14.8837 36.756C14.9626 36.7251 15.0501 36.7448 15.1262 36.7842C15.1742 36.8095 15.2193 36.832 15.2475 36.8771L15.7242 37.6343C15.7975 37.7497 15.7749 37.9214 15.6762 38.0143L15.1601 38.5014C15.3321 38.8955 15.459 39.3036 15.538 39.7231L16.2375 39.8357C16.3729 39.8582 16.4857 39.9877 16.4913 40.1228L16.5252 41.0152C16.5308 41.1503 16.4265 41.2911 16.2911 41.322L15.6029 41.4853C15.5549 41.9047 15.4619 42.3214 15.318 42.7324L17.5744 44.1258C17.6731 44.0132 17.769 43.895 17.879 43.7993L17.7436 43.4446C17.7182 43.377 17.7464 43.2898 17.8085 43.2503L18.2146 42.9942C18.2767 42.9548 18.3698 42.966 18.4205 43.0195L18.6828 43.2926C18.8944 43.2025 19.1144 43.1349 19.34 43.0927L19.4021 42.7183C19.4133 42.6451 19.4839 42.586 19.5544 42.5804L20.0338 42.5635C20.1072 42.5607 20.1805 42.617 20.1974 42.6873L20.2849 43.0533C20.5105 43.0786 20.7361 43.1293 20.9561 43.2053L21.1959 42.9125C21.2438 42.8562 21.3341 42.8365 21.399 42.8731L21.822 43.0955C21.8869 43.1293 21.9236 43.2166 21.901 43.2841L21.7938 43.6473C21.98 43.7852 22.1492 43.9428 22.2959 44.1146L22.6512 43.9794C22.7189 43.9541 22.8092 43.9823 22.8459 44.0442L23.0997 44.4496C23.1392 44.5115 23.1279 44.6044 23.0743 44.6551L22.7979 44.914C22.891 45.1252 22.9587 45.3447 23.001 45.5699L23.3761 45.6291C23.4466 45.6403 23.5087 45.7107 23.5115 45.7839L23.5312 46.2624C23.551 46.3413 23.4946 46.4173 23.4241 46.4342Z" fill="#2AAA94"/>
<path d="M24.6453 0.157806L1.15922 13.6898C0.521788 14.0585 0 14.9593 0 15.6941V27.3287C0 28.0634 0.603582 28.663 1.33691 28.663H9.54449H24.4676C25.2038 28.663 25.8074 28.0606 25.8074 27.3287V25.1752V0.824973C25.8045 0.0902449 25.2828 -0.210966 24.6453 0.157806ZM17.8311 25.817H8.12861C6.83119 25.817 5.65506 25.3047 4.78353 24.477H9.93936C10.1171 24.7107 10.385 24.8683 10.6896 24.9049C10.7347 24.9105 10.7799 24.9218 10.825 24.9218C10.9406 24.9218 11.0478 24.8993 11.1522 24.8683C11.6063 24.7276 11.9391 24.3109 11.9391 23.8099C11.9391 23.1962 11.4399 22.6979 10.825 22.6979C10.4611 22.6979 10.1424 22.8753 9.93654 23.1427H3.79354C3.46637 22.4896 3.27457 21.7549 3.27457 20.9751C3.27457 20.322 3.40714 19.7027 3.64124 19.1341H9.93654C10.1396 19.4043 10.4611 19.5788 10.825 19.5788C11.4427 19.5788 11.9391 19.0806 11.9391 18.4669C11.9391 17.8532 11.4399 17.355 10.825 17.355C10.4611 17.355 10.1424 17.5323 9.93654 17.7997H4.47046C5.15301 17.0171 6.08095 16.4541 7.13581 16.2346C8.23015 14.1289 10.4358 12.6876 12.977 12.6876C15.0444 12.6876 16.889 13.6419 18.0934 15.1282H13.1603C12.9573 14.858 12.6357 14.6835 12.2747 14.6835C11.6599 14.6835 11.1606 15.1817 11.1606 15.7954C11.1606 16.4091 11.6599 16.9074 12.2747 16.9074C12.6386 16.9074 12.9573 16.73 13.1603 16.4626H19.5882C21.2466 17.1072 22.4595 18.6358 22.6512 20.4684H13.1603C12.9573 20.201 12.6357 20.0236 12.2747 20.0236C11.6599 20.0236 11.1606 20.5219 11.1606 21.1384C11.1606 21.7521 11.6599 22.2503 12.2747 22.2503C12.6386 22.2503 12.9573 22.073 13.1603 21.8055H22.6033C22.2084 24.0857 20.2256 25.817 17.8311 25.817Z" fill="#04016C"/>
<path d="M53.1291 13.6895L29.6402 0.157562C29.0027 -0.21121 28.481 0.0900008 28.481 0.824729V27.3284C28.481 28.0632 29.0817 28.6628 29.8207 28.6628H41.7062H52.9486C53.6847 28.6628 54.2883 28.0603 54.2883 27.3284V27.0216V15.6938C54.2855 14.9591 53.7637 14.0583 53.1291 13.6895ZM45.4038 15.1139L47.6207 13.8359C47.7335 13.7711 47.8774 13.8077 47.9422 13.9232C48.0071 14.0358 47.9704 14.1793 47.8576 14.2469L45.6407 15.5249C45.6041 15.5446 45.5646 15.5559 45.5223 15.5559C45.4433 15.5559 45.3615 15.5137 45.3192 15.4377C45.2515 15.3222 45.291 15.1787 45.4038 15.1139ZM43.1672 13.0561L44.4477 10.8435C44.5125 10.7309 44.6564 10.6915 44.7692 10.7562C44.882 10.821 44.9215 10.9645 44.8566 11.0771L43.5761 13.2898C43.5338 13.3658 43.452 13.408 43.3731 13.408C43.3336 13.408 43.2941 13.3967 43.2546 13.377C43.1418 13.3123 43.1023 13.1687 43.1672 13.0561ZM40.2 9.83289C40.2 9.7034 40.3072 9.59643 40.437 9.59643C40.5695 9.59643 40.6739 9.7034 40.6739 9.83289V12.3861C40.6739 12.5156 40.5695 12.6226 40.437 12.6226C40.3072 12.6226 40.2 12.5156 40.2 12.3861V9.83289ZM36.1019 10.7562C36.2147 10.6915 36.3585 10.7281 36.4234 10.8435L37.7039 13.0561C37.7688 13.1687 37.7293 13.3123 37.6165 13.377C37.5798 13.3996 37.5375 13.408 37.498 13.408C37.4162 13.408 37.3373 13.3658 37.2921 13.2898L36.0116 11.0771C35.9524 10.9674 35.9919 10.821 36.1019 10.7562ZM33.0191 14.2441C32.9063 14.1793 32.8668 14.0329 32.9317 13.9203C32.9965 13.8077 33.1404 13.7711 33.2532 13.8331L35.4701 15.1111C35.5829 15.1759 35.6224 15.3194 35.5575 15.432C35.5152 15.508 35.4363 15.5503 35.3516 15.5503C35.3121 15.5503 35.2727 15.5418 35.2332 15.5193L33.0191 14.2441ZM40.5272 27.5649C40.5046 27.5649 40.4849 27.5677 40.4623 27.5677C39.6613 27.5677 38.7475 27.1905 38.7475 26.6247H39.5175H42.1744C42.1772 27.1764 41.3113 27.5452 40.5272 27.5649ZM42.7949 26.0082C42.7949 26.163 42.6595 26.2925 42.4874 26.2925H39.1621H38.3836C38.2144 26.2925 38.0762 26.1658 38.0762 26.0082V25.8196C38.0762 25.6732 38.2003 25.5521 38.3583 25.5409C38.3667 25.5409 38.3752 25.5352 38.3836 25.5352H42.4874C42.6595 25.5352 42.7949 25.6619 42.7949 25.8196V26.0082ZM44.8566 20.8031C43.6043 23.0552 43.2715 22.602 43.0685 23.8265C43.0205 24.1024 42.9726 24.322 42.9049 24.4937C43.0008 24.5443 43.0656 24.6316 43.0656 24.733V24.9216C43.0656 25.0792 42.9133 25.2059 42.7215 25.2059H38.1495C38.0565 25.2059 37.9719 25.1749 37.9126 25.1242C37.907 25.1214 37.907 25.1186 37.9042 25.1158L37.8844 25.0961V25.0933C37.8393 25.0454 37.8083 24.9863 37.8083 24.9216V24.733C37.8083 24.6316 37.8731 24.5443 37.969 24.4937C37.9042 24.322 37.8534 24.1052 37.8054 23.8265C37.5996 22.602 37.2696 23.0552 36.0173 20.8031C35.597 20.0459 35.3375 19.1873 35.3375 18.2612C35.3375 15.4489 37.6221 13.1715 40.437 13.1715C42.6172 13.1715 44.4759 14.5397 45.2036 16.4623C45.4151 17.0225 45.5392 17.6278 45.5392 18.2612C45.5364 19.1873 45.2769 20.0487 44.8566 20.8031Z" fill="#2AAA94"/>
<path opacity="0.2" d="M22.6063 21.8082C22.2114 24.0856 20.2258 25.8197 17.8312 25.8197H8.12878C6.83136 25.8197 5.65522 25.3073 4.78369 24.4797L9.54466 28.6657H24.4678C25.2039 28.6657 25.8075 28.0633 25.8075 27.3314V25.1779L22.6091 21.8054L22.6063 21.8082Z" fill="#2AAA94"/>
<path d="M30.5542 39.4783L30.5571 39.4841C30.5571 39.4812 30.5542 39.4812 30.5542 39.4783Z" fill="#2AAA94"/>
<path opacity="0.2" d="M30.5542 39.4783L30.5571 39.4841C30.5571 39.4812 30.5542 39.4812 30.5542 39.4783Z" fill="#2AAA94"/>
<path d="M52.9486 31.3342H29.8207C29.0845 31.3342 28.481 31.9366 28.481 32.6714V59.1751C28.481 59.9098 29.0027 60.211 29.6402 59.8423L35.9834 56.1855L38.9167 54.4965L44.4251 51.3239L53.1291 46.3103C53.2222 46.2568 53.3124 46.1893 53.3999 46.1132C53.9076 45.6769 54.2855 44.9337 54.2855 44.306V42.3889V32.6714C54.2855 31.9366 53.6847 31.3342 52.9486 31.3342ZM46.4023 45.6488C46.4023 46.6988 43.7736 47.5461 40.5272 47.5461C37.2837 47.5461 34.6522 46.696 34.6522 45.6488V41.5979L39.8926 42.9013C40.1013 42.9519 40.3129 42.9801 40.5272 42.9801C40.7416 42.9801 40.9531 42.9548 41.1618 42.9013L46.4023 41.5979V45.6488ZM50.1112 39.8948L49.313 40.0919V45.2012C49.5104 45.4151 49.6345 45.7276 49.6345 46.0767C49.6345 46.7185 49.2115 47.2421 48.6925 47.2421C48.1735 47.2421 47.7505 46.7213 47.7505 46.0767C47.7505 45.7276 47.8746 45.4123 48.072 45.2012V40.4015L46.4023 40.8153L41.0405 42.1497C40.8713 42.1919 40.7021 42.2144 40.5272 42.2144C40.3552 42.2144 40.1831 42.1919 40.0167 42.1497L34.6522 40.8153L30.9432 39.8948C30.8389 39.8695 30.7627 39.8075 30.695 39.7343C30.633 39.664 30.585 39.5795 30.5568 39.4838L30.554 39.4782C30.4638 39.1432 30.5935 38.7237 30.9404 38.6365L40.0139 36.376C40.1831 36.3309 40.3552 36.3112 40.5244 36.3112C40.6964 36.3112 40.8685 36.3338 41.0377 36.376L50.1112 38.6365C50.2889 38.6815 50.4017 38.8138 50.4666 38.9743C50.602 39.3205 50.4863 39.7991 50.1112 39.8948Z" fill="#04016C"/>
<path opacity="0.2" d="M50.4669 38.9771C50.6022 39.3205 50.4894 39.799 50.1115 39.8948L49.3133 40.0918V45.2011C49.5107 45.4151 49.6348 45.7275 49.6348 46.0766C49.6348 46.7184 49.2117 47.242 48.6928 47.242C48.1738 47.242 47.7507 46.7213 47.7507 46.0766C47.7507 45.7275 47.8748 45.4123 48.0723 45.2011V40.4015L46.4025 40.8153L41.0408 42.1496C40.8716 42.1918 40.7024 42.2144 40.5275 42.2144C40.3554 42.2144 40.1834 42.1918 40.017 42.1496L34.6524 40.8153L30.9435 39.8948C30.8392 39.8694 30.763 39.8075 30.6953 39.7343L38.917 54.4964L44.4254 51.3239L53.1294 46.3103C53.2225 46.2568 53.3127 46.1892 53.4001 46.1132L50.4725 38.9799H50.4669V38.9771ZM46.4025 45.6487C46.4025 46.6987 43.7739 47.5461 40.5275 47.5461C37.2839 47.5461 34.6524 46.6959 34.6524 45.6487V41.5979L39.8929 42.9012C40.1016 42.9519 40.3131 42.98 40.5275 42.98C40.7419 42.98 40.9534 42.9547 41.1621 42.9012L46.4025 41.5979V45.6487Z" fill="#2AAA94"/>
<path d="M9.31907 40.5593C9.17522 40.8295 9.27958 41.1645 9.55034 41.3081C9.82111 41.4517 10.1567 41.3475 10.3006 41.0773C10.4444 40.807 10.3401 40.472 10.0693 40.3285C9.79855 40.1849 9.46291 40.2891 9.31907 40.5593Z" fill="#2AAA94"/>
<path d="M13.0308 43.6418L9.21186 41.9471C8.58571 41.6177 8.34879 40.8436 8.67879 40.2215C9.00879 39.5993 9.7816 39.3601 10.4077 39.6894L13.9615 41.8852C14.4495 40.0075 13.609 37.9751 11.8152 37.032C9.71955 35.9257 7.12189 36.7252 6.01344 38.8168C4.90499 40.9083 5.70601 43.501 7.80162 44.6073C9.59545 45.5504 11.7503 45.0999 13.0308 43.6418Z" fill="#2AAA94"/>
<path opacity="0.2" d="M15.1376 36.7785C15.1855 36.8038 15.2307 36.8263 15.2589 36.8714L15.7355 37.6286C15.8088 37.744 15.7863 37.9158 15.6876 38.0087L15.1714 38.4957C15.3435 38.8898 15.4704 39.2979 15.5494 39.7174L16.2488 39.83C16.3842 39.8525 16.497 39.982 16.5027 40.1171L16.5365 41.0095C16.5422 41.1446 16.4378 41.2854 16.3024 41.3163L15.6142 41.4796C15.5663 41.8991 15.4732 42.3157 15.3294 42.7267L17.5857 44.1201C17.6845 44.0075 17.7804 43.8893 17.8904 43.7936L17.755 43.4389C17.7296 43.3713 17.7578 43.2841 17.8198 43.2446L18.226 42.9885C18.288 42.9491 18.3811 42.9603 18.4319 43.0138L18.6942 43.2869C18.9057 43.1968 19.1257 43.1292 19.3514 43.087L19.4134 42.7126C19.4247 42.6394 19.4952 42.5803 19.5657 42.5747L20.0452 42.5578C20.1185 42.555 20.1919 42.6113 20.2088 42.6816L20.2962 43.0476C20.5219 43.0729 20.7475 43.1236 20.9675 43.1996L21.2072 42.9068C21.2552 42.8505 21.3454 42.8308 21.4103 42.8674L21.8334 43.0898C21.8983 43.1236 21.9349 43.2109 21.9124 43.2784L21.8052 43.6416C21.9913 43.7795 22.1606 43.9372 22.3072 44.1089L22.6626 43.9738C22.7303 43.9484 22.8206 43.9766 22.8572 44.0385L23.1111 44.4439C23.1506 44.5058 23.1393 44.5987 23.0857 44.6494L22.8093 44.9083C22.9023 45.1195 22.97 45.339 23.0123 45.5643L23.3875 45.6234C23.458 45.6346 23.52 45.705 23.5229 45.7782L23.5426 46.2568C23.5454 46.3299 23.489 46.4031 23.4185 46.42L23.049 46.5073C23.0236 46.7325 22.9729 46.9577 22.8967 47.1773L23.19 47.4166C23.2464 47.4644 23.2662 47.5545 23.2295 47.6192L23.0039 48.0443C22.97 48.1091 22.8854 48.1457 22.8149 48.1231L22.4511 48.0162C22.3129 48.202 22.1549 48.3709 21.9829 48.5201L22.1183 48.8748C22.1436 48.9423 22.1154 49.0296 22.0534 49.069L21.6472 49.3223C21.5852 49.3618 21.4949 49.3505 21.4442 49.297L21.1819 49.0211C20.9703 49.1112 20.7503 49.1816 20.5247 49.2238L20.4626 49.5982C20.4514 49.6714 20.3837 49.7333 20.3075 49.7362L19.828 49.753C19.7547 49.7559 19.6814 49.6996 19.6644 49.6264L19.5742 49.2604C19.3485 49.2351 19.1229 49.1844 18.9029 49.1084L18.6632 49.4012C18.618 49.4575 18.525 49.4772 18.4601 49.4434L18.0342 49.2182C17.9693 49.1844 17.9355 49.0971 17.9552 49.0296L18.0624 48.6664C17.8763 48.5285 17.707 48.3709 17.5575 48.1991L17.2022 48.3343C17.1345 48.3624 17.0442 48.3314 17.0076 48.2695L16.7537 47.8641C16.7142 47.8022 16.7255 47.7093 16.7791 47.6615L17.0527 47.4025C16.9624 47.1914 16.8947 46.9718 16.8496 46.7466L16.4745 46.6875C16.4011 46.6762 16.3391 46.6058 16.3391 46.5326L16.3194 46.0541C16.3165 45.9809 16.3729 45.9077 16.4435 45.8908L16.8129 45.8035C16.8299 45.6543 16.8609 45.508 16.9004 45.3616L14.4889 44.2918C14.2294 44.6409 13.9361 44.9534 13.6145 45.2293L13.8655 45.888C13.9135 46.0175 13.8599 46.1807 13.7443 46.2511L12.9856 46.7269C12.8699 46.8001 12.6979 46.7775 12.6048 46.679L12.1168 46.1639C11.7248 46.3328 11.313 46.4594 10.8928 46.5411L10.7799 47.2392C10.7574 47.3743 10.6276 47.4897 10.4923 47.4926L9.59816 47.5263C9.45996 47.532 9.32175 47.425 9.29073 47.2927L9.12714 46.6058C8.70689 46.558 8.28664 46.4651 7.87485 46.3215L7.42921 46.8704C7.34178 46.9746 7.17255 47.0112 7.05127 46.9464L18.1809 56.1179L24.6313 59.8337C25.2687 60.2025 25.7905 59.9013 25.7905 59.1666V45.0998L15.1263 36.7644L15.1376 36.7785Z" fill="#2AAA94"/>
<path opacity="0.2" d="M45.2012 16.4624C45.4127 17.0226 45.5368 17.6278 45.5368 18.2612C45.5368 19.1874 45.2745 20.0488 44.8571 20.8032C43.6048 23.0553 43.272 22.602 43.0689 23.8266C43.021 24.1025 42.973 24.322 42.9053 24.4937C43.0012 24.5444 43.0661 24.6317 43.0661 24.733V24.9216C43.0661 25.0793 42.9138 25.206 42.722 25.206H38.15C38.0569 25.206 37.9723 25.175 37.9131 25.1243L38.3587 25.5409C38.3672 25.5409 38.3756 25.5353 38.3841 25.5353H42.4879C42.6599 25.5353 42.7953 25.662 42.7953 25.8196V26.0082C42.7953 26.1631 42.6599 26.2926 42.4879 26.2926H39.1626L39.5179 26.6247H42.1748C42.1748 27.1765 41.3089 27.5453 40.5248 27.565L41.7038 28.6628H52.9462C53.6824 28.6628 54.286 28.0604 54.286 27.3285V27.0217L45.2012 16.4624Z" fill="#2AAA94"/>
</g>
<defs>
<clipPath id="clip0_1_478">
<rect width="54.2857" height="60" fill="white"/>
</clipPath>
</defs>
</svg>
